<?xml version="1.0" encoding="UTF-8" ?>
<!DOCTYPE svg PUBLIC "-//W3C//DTD SVG 1.1//EN" "http://www.w3.org/Graphics/SVG/1.1/DTD/svg11.dtd">
<svg width="362pt" height="264pt" viewBox="0 0 362 264" version="1.1" xmlns="http://www.w3.org/2000/svg">
<path fill="#ffffff" d=" M 0.00 0.00 L 362.00 0.00 L 362.00 264.00 L 0.00 264.00 L 0.00 0.00 Z" />
<path fill="#262324" d=" M 232.40 2.95 C 271.96 22.27 311.50 41.61 351.06 60.93 C 331.77 100.31 312.48 139.68 293.20 179.06 C 213.46 179.12 133.72 178.85 53.99 179.32 C 45.79 179.53 36.75 178.37 30.62 172.37 C 25.81 168.08 24.11 161.68 20.68 156.43 C 17.42 151.24 14.07 146.12 10.93 140.86 C 84.76 94.89 158.58 48.92 232.40 2.95 Z" />
<path fill="#ffffff" d=" M 26.40 144.47 C 95.29 101.58 164.17 58.68 233.06 15.78 C 267.38 32.55 301.69 49.32 336.01 66.09 C 319.39 100.02 302.76 133.94 286.16 167.87 C 209.10 167.88 132.05 167.63 55.00 168.13 C 50.25 168.08 45.21 168.23 40.86 166.03 C 37.56 164.36 35.69 160.99 34.20 157.76 C 32.06 153.08 29.21 148.77 26.40 144.47 Z" />
<path fill="#262324" d=" M 246.27 53.00 C 246.95 53.00 248.32 53.00 249.00 53.00 C 249.00 59.24 249.00 65.49 249.00 71.73 C 252.00 71.73 255.00 71.73 258.00 71.73 C 258.00 72.30 258.00 73.43 258.00 74.00 C 254.09 74.00 250.18 74.00 246.27 74.00 C 246.27 67.00 246.27 60.00 246.27 53.00 Z" />
<path fill="#272425" d=" M 261.00 53.00 C 264.82 53.00 268.64 53.00 272.47 53.00 C 272.47 53.57 272.47 54.70 272.47 55.27 C 269.56 55.27 266.64 55.27 263.73 55.27 C 263.73 57.51 263.73 59.76 263.74 62.00 C 266.49 62.00 269.24 62.00 272.00 62.00 C 272.00 62.50 272.00 63.50 272.00 64.00 C 269.24 64.00 266.49 64.00 263.74 64.00 C 263.74 66.58 263.73 69.15 263.73 71.73 C 266.73 71.73 269.73 71.73 272.74 71.73 C 272.74 72.30 272.74 73.43 272.74 74.00 C 268.82 74.00 264.91 74.00 261.00 74.00 C 261.00 67.00 261.00 60.00 261.00 53.00 Z" />
<path fill="#262324" d=" M 178.32 84.18 C 187.63 79.10 199.15 77.35 209.29 80.85 C 216.77 83.45 221.05 91.25 221.54 98.84 C 222.34 112.54 220.82 126.36 222.70 140.00 C 219.34 140.00 215.98 140.00 212.62 140.00 C 212.33 137.33 212.04 134.66 211.81 131.98 C 204.45 141.19 189.52 144.26 179.94 136.83 C 173.34 131.56 172.37 121.50 176.31 114.35 C 178.77 109.76 183.35 106.74 188.09 104.89 C 195.34 102.06 203.22 101.60 210.92 101.41 C 210.83 96.49 209.44 90.73 204.45 88.59 C 196.75 85.40 187.94 87.63 180.79 91.24 C 179.95 88.89 179.12 86.54 178.32 84.18 Z" />
<path fill="#ffffff" d=" M 189.45 113.52 C 195.69 109.13 203.68 109.15 210.99 108.97 C 210.65 114.39 212.14 120.35 209.24 125.29 C 205.69 131.75 196.93 134.78 190.19 131.73 C 183.38 128.42 183.42 117.60 189.45 113.52 Z" />
<path fill="#0c0c0d" d=" M 86.39 194.24 C 90.16 192.90 95.73 191.76 98.19 195.84 C 100.28 200.76 98.83 206.30 99.34 211.48 C 97.88 211.10 96.56 210.47 95.82 209.11 C 93.13 210.85 89.21 212.07 86.57 209.57 C 84.16 207.69 84.71 203.78 86.99 202.04 C 89.65 199.86 93.29 200.01 96.49 199.43 C 95.91 198.33 95.40 197.17 94.61 196.20 C 92.25 194.58 89.33 195.92 86.87 196.51 C 86.75 195.94 86.51 194.80 86.39 194.24 Z" />
<path fill="#0c0c0d" d=" M 105.99 193.00 C 110.09 193.00 114.18 193.00 118.27 193.00 C 118.27 199.00 118.27 205.00 118.27 211.00 C 117.45 211.00 115.82 211.00 115.00 211.00 C 115.00 205.82 115.00 200.64 115.00 195.47 C 113.00 195.46 111.00 195.46 109.00 195.46 C 108.95 199.43 109.32 203.51 108.15 207.36 C 107.27 209.92 104.58 210.96 102.12 211.31 C 102.44 208.41 105.65 207.01 105.83 204.11 C 106.20 200.42 105.93 196.70 105.99 193.00 Z" />
<path fill="#0c0c0d" d=" M 124.93 209.00 C 119.72 204.53 121.77 194.15 129.00 193.20 C 134.55 191.68 138.88 197.00 138.48 202.22 C 133.92 202.34 129.35 202.15 124.79 202.42 C 125.67 204.33 126.06 206.92 128.27 207.80 C 130.91 209.25 133.97 208.33 136.71 207.74 C 136.82 208.33 137.04 209.50 137.15 210.09 C 133.16 211.08 128.36 211.85 124.93 209.00 Z" />
<path fill="#0c0c0d" d=" M 141.30 194.17 C 144.86 192.97 150.02 191.82 152.45 195.55 C 154.12 198.14 151.99 200.77 149.51 201.64 C 151.00 202.45 152.92 203.11 153.42 204.96 C 154.14 207.54 151.88 209.76 149.59 210.44 C 146.49 211.56 143.19 210.76 140.13 209.92 C 140.26 209.34 140.51 208.17 140.64 207.59 C 143.61 208.37 147.54 209.59 149.86 206.77 C 150.89 202.80 145.51 203.06 143.00 202.75 C 143.16 202.29 143.48 201.39 143.64 200.94 C 145.79 200.69 150.34 200.60 149.62 197.37 C 148.38 194.11 144.11 195.76 141.67 196.46 C 141.58 195.89 141.39 194.74 141.30 194.17 Z" />
<path fill="#0c0c0d" d=" M 158.00 193.00 C 158.75 193.00 160.25 193.00 161.00 193.00 C 160.96 198.05 161.16 203.10 160.76 208.14 C 163.13 202.87 166.28 198.02 169.11 193.00 C 170.40 193.00 171.70 193.00 173.00 193.00 C 173.00 199.00 173.00 205.00 173.00 211.00 C 172.18 211.00 170.55 211.00 169.73 211.00 C 169.71 205.87 169.65 200.75 170.05 195.63 C 167.51 200.90 164.55 205.96 161.60 211.00 C 160.40 211.00 159.20 211.00 158.00 211.00 C 158.00 205.00 158.00 199.00 158.00 193.00 Z" />
<path fill="#0c0c0d" d=" M 178.56 195.51 C 181.98 191.94 187.57 193.14 192.00 193.30 C 192.00 199.20 192.00 205.10 192.00 211.00 C 191.19 211.00 189.56 211.00 188.74 211.00 C 188.74 208.36 188.73 205.72 188.66 203.09 C 186.69 203.38 184.27 202.96 182.80 204.62 C 181.54 206.60 180.85 208.86 179.94 211.00 C 179.12 211.00 177.50 211.00 176.68 211.00 C 178.10 207.98 178.76 204.39 181.58 202.27 C 178.99 201.18 176.24 198.28 178.56 195.51 Z" />
<path fill="#68b9d3" d=" M 207.00 193.00 C 211.09 193.00 215.18 193.00 219.27 193.00 C 219.27 199.00 219.27 205.00 219.26 211.00 C 218.45 211.00 216.82 211.00 216.00 211.00 C 216.00 205.82 216.00 200.64 216.00 195.46 C 214.01 195.46 212.04 195.46 210.06 195.46 C 209.96 199.41 210.30 203.48 209.14 207.31 C 208.33 209.99 205.24 210.60 203.04 211.64 C 204.28 208.79 206.50 206.29 206.87 203.11 C 207.20 199.75 207.00 196.37 207.00 193.00 Z" />
<path fill="#68b9d3" d=" M 224.00 193.00 C 224.75 193.00 226.25 193.00 227.00 193.00 C 227.00 197.83 227.00 202.67 227.00 207.50 C 229.48 202.54 232.32 197.78 235.12 193.00 C 236.41 193.00 237.70 193.00 239.00 193.00 C 239.00 199.00 239.00 205.00 239.00 211.00 C 238.18 211.00 236.55 211.00 235.73 211.00 C 235.69 205.91 235.73 200.83 236.00 195.76 C 233.43 200.95 230.55 205.98 227.63 210.98 C 226.42 210.99 225.21 211.00 224.00 211.01 C 224.00 205.01 224.00 199.00 224.00 193.00 Z" />
<path fill="#68b9d3" d=" M 244.73 192.99 C 248.42 193.00 252.11 193.00 255.80 193.03 C 255.78 193.65 255.73 194.88 255.70 195.50 C 253.13 195.47 250.57 195.46 248.01 195.45 C 248.00 200.63 248.00 205.82 248.00 211.00 C 247.18 211.00 245.55 211.00 244.74 211.00 C 244.73 205.00 244.73 198.99 244.73 192.99 Z" />
<path fill="#68b9d3" d=" M 257.70 196.07 C 260.59 191.62 269.29 191.69 270.76 197.30 C 271.73 202.03 271.20 206.91 271.24 211.71 C 270.06 210.93 268.90 210.16 267.77 209.32 C 265.05 210.39 261.75 212.03 259.07 209.98 C 256.26 208.26 256.47 203.96 258.96 202.07 C 261.77 199.98 265.45 199.97 268.73 199.20 C 267.81 198.02 266.88 196.84 265.87 195.74 C 263.15 195.35 260.41 195.90 257.70 196.07 Z" />
<path fill="#68b9d3" d=" M 278.00 193.00 C 282.09 193.00 286.17 193.00 290.26 193.00 C 290.27 199.00 290.27 205.00 290.27 211.00 C 289.45 211.00 287.82 211.00 287.00 211.00 C 287.00 205.82 287.00 200.64 287.00 195.47 C 285.01 195.46 283.04 195.46 281.06 195.45 C 280.96 199.41 281.30 203.49 280.13 207.33 C 279.33 210.01 276.23 210.60 274.04 211.64 C 275.28 208.78 277.50 206.28 277.87 203.10 C 278.20 199.74 278.00 196.37 278.00 193.00 Z" />
<path fill="#ffffff" d=" M 124.72 199.72 C 126.12 197.50 127.97 194.64 131.06 195.34 C 133.58 195.36 134.81 197.83 135.37 199.93 C 131.82 200.05 128.25 200.10 124.72 199.72 Z" />
<path fill="#ffffff" d=" M 181.05 197.11 C 182.80 194.66 186.12 195.40 188.70 195.18 C 188.72 197.15 188.73 199.12 188.74 201.09 C 185.93 201.07 180.44 201.34 181.05 197.11 Z" />
<path fill="#ffffff" d=" M 88.27 205.06 C 89.28 201.85 93.48 202.27 96.14 201.82 C 95.79 203.69 96.53 206.28 94.61 207.48 C 92.48 209.56 87.56 208.63 88.27 205.06 Z" />
<path fill="#ffffff" d=" M 261.35 203.41 C 263.49 202.17 266.05 202.10 268.42 201.62 C 267.78 203.72 268.31 206.84 265.91 207.95 C 264.21 208.98 262.00 208.69 260.54 207.38 C 260.21 206.07 259.94 204.20 261.35 203.41 Z" />
<path fill="#0c0c0d" d=" M 113.73 238.00 C 114.55 238.00 116.18 238.00 116.99 238.00 C 116.99 240.77 117.00 243.55 117.07 246.33 C 119.66 243.76 121.90 240.86 124.44 238.24 C 125.86 238.02 127.29 237.90 128.74 237.86 C 126.16 240.48 123.58 243.09 120.92 245.63 C 125.42 247.33 126.96 251.97 128.67 256.00 C 127.81 256.00 126.09 256.00 125.24 255.99 C 124.13 253.72 123.33 251.23 121.65 249.29 C 120.35 248.25 118.59 248.17 117.04 247.72 C 116.99 250.48 116.99 253.24 117.00 256.00 C 116.18 256.00 114.55 256.00 113.73 256.00 C 113.73 250.00 113.73 244.00 113.73 238.00 Z" />
<path fill="#0c0c0d" d=" M 135.42 238.56 C 139.14 237.07 143.90 238.56 145.85 242.13 C 147.83 245.88 147.34 251.10 143.99 253.92 C 140.39 257.09 134.13 256.57 131.38 252.54 C 128.02 247.99 129.88 240.40 135.42 238.56 Z" />
<path fill="#0c0c0d" d=" M 151.73 238.00 C 152.55 238.00 154.18 238.00 155.00 238.00 C 155.00 240.51 155.00 243.02 155.00 245.54 C 157.91 245.53 160.82 245.53 163.74 245.54 C 163.73 243.02 163.73 240.51 163.73 238.00 C 164.55 238.00 166.18 238.00 167.00 238.00 C 167.00 244.00 167.00 250.00 167.00 256.00 C 166.18 256.00 164.55 256.00 163.73 256.00 C 163.73 253.33 163.73 250.66 163.73 248.00 C 160.82 248.00 157.91 248.00 155.00 248.00 C 155.00 250.66 155.00 253.33 155.00 256.00 C 154.18 256.00 152.55 256.00 151.73 256.00 C 151.73 250.00 151.73 244.00 151.73 238.00 Z" />
<path fill="#0c0c0d" d=" M 173.48 240.52 C 176.47 237.53 181.04 237.76 184.85 238.61 C 184.67 239.40 184.48 240.20 184.30 241.00 C 181.98 240.71 179.39 239.83 177.24 241.21 C 172.85 243.39 172.93 250.61 177.23 252.86 C 179.65 254.14 182.44 253.13 185.01 253.20 C 184.46 256.80 179.72 256.12 177.06 255.68 C 170.39 254.33 168.67 244.83 173.48 240.52 Z" />
<path fill="#0c0c0d" d=" M 188.43 239.18 C 192.18 237.93 197.68 236.77 200.17 240.80 C 202.29 245.72 200.82 251.28 201.34 256.48 C 199.89 256.08 198.55 255.49 197.80 254.12 C 195.26 255.68 191.86 256.95 189.15 255.04 C 186.52 253.48 186.37 249.64 188.44 247.57 C 191.04 244.86 195.07 245.04 198.49 244.43 C 197.91 243.33 197.41 242.18 196.62 241.22 C 194.24 239.57 191.32 240.92 188.84 241.52 C 188.74 240.93 188.53 239.76 188.43 239.18 Z" />
<path fill="#0c0c0d" d=" M 207.99 238.00 C 212.08 238.00 216.18 238.00 220.27 238.00 C 220.27 244.00 220.27 250.00 220.27 256.00 C 219.45 256.00 217.82 256.00 217.00 256.00 C 217.00 250.82 217.00 245.64 217.00 240.47 C 215.00 240.46 213.00 240.46 211.00 240.46 C 210.95 244.42 211.31 248.48 210.17 252.32 C 209.30 254.90 206.59 255.96 204.12 256.31 C 204.43 253.41 207.64 252.02 207.83 249.11 C 208.20 245.42 207.93 241.70 207.99 238.00 Z" />
<path fill="#0c0c0d" d=" M 223.56 238.00 C 228.27 238.00 232.99 238.00 237.71 238.00 C 237.73 238.62 237.76 239.87 237.77 240.50 C 235.93 240.47 234.10 240.46 232.27 240.45 C 232.27 245.63 232.27 250.81 232.27 256.00 C 231.45 256.00 229.82 256.00 229.00 256.00 C 229.00 250.82 229.00 245.64 229.00 240.46 C 227.16 240.46 225.32 240.47 223.49 240.48 C 223.50 239.86 223.54 238.62 223.56 238.00 Z" />
<path fill="#0c0c0d" d=" M 241.00 238.00 C 241.75 238.00 243.25 238.00 244.00 238.00 C 243.96 243.04 244.16 248.10 243.76 253.14 C 246.13 247.87 249.28 243.02 252.11 238.00 C 253.40 238.00 254.70 238.00 256.00 238.00 C 256.00 244.00 256.00 250.00 256.00 256.00 C 255.18 256.00 253.55 256.00 252.73 256.00 C 252.71 250.87 252.65 245.75 253.06 240.63 C 250.50 245.90 247.56 250.96 244.60 256.00 C 243.39 256.00 242.20 256.00 241.00 256.00 C 241.00 250.00 241.00 244.00 241.00 238.00 Z" />
<path fill="#0c0c0d" d=" M 260.73 238.00 C 261.55 238.00 263.18 238.00 264.00 238.00 C 264.00 240.51 264.00 243.02 264.00 245.53 C 266.91 245.53 269.82 245.53 272.74 245.54 C 272.73 243.02 272.73 240.51 272.73 238.00 C 273.55 238.00 275.18 238.00 276.00 238.00 C 276.00 244.00 276.00 250.00 276.00 256.00 C 275.18 256.00 273.55 256.00 272.73 256.00 C 272.73 253.33 272.73 250.66 272.73 248.00 C 269.82 248.00 266.91 248.00 264.00 248.00 C 264.00 250.66 264.00 253.33 264.00 256.00 C 263.18 256.00 261.55 256.00 260.73 256.00 C 260.73 250.00 260.73 244.00 260.73 238.00 Z" />
<path fill="#0c0c0d" d=" M 281.73 238.00 C 285.39 238.00 289.05 238.00 292.71 238.00 C 292.73 238.62 292.76 239.87 292.78 240.49 C 290.18 240.46 287.59 240.46 285.00 240.46 C 285.00 245.64 285.00 250.82 285.00 256.00 C 284.18 256.00 282.55 256.00 281.73 256.00 C 281.73 250.00 281.73 244.00 281.73 238.00 Z" />
<path fill="#ffffff" d=" M 137.44 240.48 C 141.17 239.73 144.03 243.53 143.75 246.99 C 144.09 250.56 140.81 254.55 137.02 253.35 C 131.44 251.49 131.66 241.91 137.44 240.48 Z" />
<path fill="#ffffff" d=" M 190.27 250.12 C 191.20 246.85 195.48 247.27 198.14 246.82 C 197.80 248.72 198.53 251.37 196.53 252.54 C 194.42 254.55 189.60 253.60 190.27 250.12 Z" />
</svg>
